<svg width="1636" height="266" viewBox="0 0 1636 266" fill="none" xmlns="http://www.w3.org/2000/svg" xmlns:xlink="http://www.w3.org/1999/xlink">
<style>.__159 {
	animation: 0.6s linear 0s 1 normal forwards running __159;
		opacity: 1;
}
@keyframes __159 {
	0% {
		opacity: 1;
	}
	50% {
		opacity: 0;
	}
	100% {
		opacity: 1;
	}
}
</style>
<g width="1636" height="266" data-name="Plugin / file cover - 1">
	<g filter="url(#filter0_d_65_7)" data-name="Plugin / file cover - 1">
	<rect width="1636" height="266" fill="#E0E2DB" data-name="Plugin / file cover - 1"/>
	<rect width="1635" height="265" stroke="#2E3532" data-name="Plugin / file cover - 1"/>
	</g>
	<g filter="url(#filter0_d_65_8)" data-name="> jorgectl"> transform="translate(99 1)"
	<path d="M16.5906 192V171.6L76.3906 143C79.0573 141.8 81.5906 140.8 83.9906 140C86.3906 139.2 88.1906 138.667 89.3906 138.4C88.0573 138.133 86.124 137.6 83.5906 136.8C81.1906 135.867 78.7906 134.8 76.3906 133.6L16.5906 105V84.2L104.191 126.8V149.4L16.5906 192ZM257.034 240V220H284.634C291.968 220 297.701 218 301.834 214C305.968 210 308.034 204.333 308.034 197V113.8H263.034V94H329.634V197.2C329.634 210.4 325.634 220.8 317.634 228.4C309.634 236.133 298.834 240 285.234 240H257.034ZM317.834 75C313.168 75 309.434 73.8 306.634 71.4C303.834 68.8667 302.434 65.5333 302.434 61.4C302.434 57.1333 303.834 53.8 306.634 51.4C309.434 48.8667 313.168 47.6 317.834 47.6C322.501 47.6 326.234 48.8667 329.034 51.4C331.834 53.8 333.234 57.1333 333.234 61.4C333.234 65.5333 331.834 68.8667 329.034 71.4C326.234 73.8 322.501 75 317.834 75ZM420.156 205.8C411.09 205.8 403.223 204.067 396.556 200.6C389.89 197.133 384.756 192.2 381.156 185.8C377.556 179.4 375.756 171.867 375.756 163.2V134.8C375.756 126 377.556 118.467 381.156 112.2C384.756 105.8 389.89 100.867 396.556 97.4C403.223 93.9333 411.09 92.2 420.156 92.2C429.223 92.2 437.09 93.9333 443.756 97.4C450.423 100.867 455.556 105.8 459.156 112.2C462.756 118.467 464.556 126 464.556 134.8V163.2C464.556 171.867 462.756 179.4 459.156 185.8C455.556 192.2 450.423 197.133 443.756 200.6C437.09 204.067 429.223 205.8 420.156 205.8ZM420.156 186.8C427.49 186.8 433.156 184.8 437.156 180.8C441.156 176.667 443.156 170.8 443.156 163.2V134.8C443.156 127.067 441.156 121.2 437.156 117.2C433.156 113.2 427.49 111.2 420.156 111.2C412.956 111.2 407.29 113.2 403.156 117.2C399.156 121.2 397.156 127.067 397.156 134.8V163.2C397.156 170.8 399.156 176.667 403.156 180.8C407.29 184.8 412.956 186.8 420.156 186.8ZM500.478 204V94H521.278V115H526.478L519.878 128C519.878 116.133 522.478 107.2 527.678 101.2C532.878 95.0667 540.611 92 550.878 92C562.611 92 571.878 95.6667 578.678 103C585.611 110.2 589.078 120.133 589.078 132.8V140.2H566.878V134.6C566.878 126.733 564.878 120.733 560.878 116.6C557.011 112.333 551.545 110.2 544.478 110.2C537.411 110.2 531.878 112.333 527.878 116.6C524.011 120.867 522.078 126.867 522.078 134.6V204H500.478ZM631.2 240V221.4H665C670.6 221.4 674.733 220.067 677.4 217.4C680.2 214.733 681.6 210.8 681.6 205.6V194.6L682 174.2H677.4L681.8 170.2C681.8 178.6 679.133 185.2 673.8 190C668.6 194.8 661.533 197.2 652.6 197.2C641.267 197.2 632.333 193.467 625.8 186C619.267 178.533 616 168.467 616 155.8V133.4C616 120.733 619.267 110.667 625.8 103.2C632.333 95.7333 641.267 92 652.6 92C661.533 92 668.6 94.4667 673.8 99.4C679.133 104.2 681.8 110.8 681.8 119.2L677.4 115H681.8L681.6 94H703V206C703 216.533 699.667 224.8 693 230.8C686.333 236.933 677.067 240 665.2 240H631.2ZM659.6 178.6C666.4 178.6 671.733 176.533 675.6 172.4C679.6 168.133 681.6 162.267 681.6 154.8V134.6C681.6 127.133 679.6 121.333 675.6 117.2C671.733 112.933 666.4 110.8 659.6 110.8C652.533 110.8 647.067 112.867 643.2 117C639.467 121 637.6 126.867 637.6 134.6V154.8C637.6 162.4 639.467 168.267 643.2 172.4C647.067 176.533 652.533 178.6 659.6 178.6ZM779.922 206C770.989 206 763.122 204.267 756.322 200.8C749.655 197.2 744.522 192.2 740.922 185.8C737.322 179.4 735.522 171.933 735.522 163.4V134.6C735.522 125.933 737.322 118.467 740.922 112.2C744.522 105.8 749.655 100.867 756.322 97.4C763.122 93.8 770.989 92 779.922 92C788.989 92 796.855 93.8 803.522 97.4C810.189 100.867 815.322 105.8 818.922 112.2C822.522 118.467 824.322 125.933 824.322 134.6V154.2H756.322V163.4C756.322 171.533 758.322 177.733 762.322 182C766.455 186.267 772.389 188.4 780.122 188.4C786.389 188.4 791.455 187.333 795.322 185.2C799.189 182.933 801.589 179.667 802.522 175.4H823.922C822.322 184.733 817.522 192.2 809.522 197.8C801.522 203.267 791.655 206 779.922 206ZM803.522 141.2V134.4C803.522 126.4 801.522 120.2 797.522 115.8C793.522 111.4 787.655 109.2 779.922 109.2C772.322 109.2 766.455 111.4 762.322 115.8C758.322 120.2 756.322 126.467 756.322 134.6V139.6L805.122 139.4L803.522 141.2ZM900.644 206C891.577 206 883.577 204.333 876.644 201C869.844 197.533 864.577 192.6 860.844 186.2C857.244 179.667 855.444 172.067 855.444 163.4V134.6C855.444 125.8 857.244 118.2 860.844 111.8C864.577 105.4 869.844 100.533 876.644 97.2C883.577 93.7333 891.577 92 900.644 92C913.844 92 924.444 95.4667 932.444 102.4C940.444 109.333 944.644 118.8 945.044 130.8H923.444C923.044 124.533 920.844 119.667 916.844 116.2C912.844 112.733 907.444 111 900.644 111C893.31 111 887.51 113.067 883.244 117.2C878.977 121.2 876.844 126.933 876.844 134.4V163.4C876.844 170.867 878.977 176.667 883.244 180.8C887.51 184.933 893.31 187 900.644 187C907.444 187 912.844 185.267 916.844 181.8C920.844 178.333 923.044 173.467 923.444 167.2H945.044C944.644 179.2 940.444 188.667 932.444 195.6C924.444 202.533 913.844 206 900.644 206ZM1031.77 204C1021.77 204 1013.97 201.267 1008.37 195.8C1002.77 190.333 999.966 182.733 999.966 173V113.6H969.566V94H999.966V63H1021.57V94H1064.57V113.6H1021.57V173C1021.57 180.6 1025.23 184.4 1032.57 184.4H1062.57V204H1031.77ZM1155.49 204C1148.69 204 1142.75 202.667 1137.69 200C1132.62 197.2 1128.62 193.267 1125.69 188.2C1122.89 183.133 1121.49 177.267 1121.49 170.6V77.6H1085.49V58H1143.09V170.6C1143.09 174.867 1144.29 178.267 1146.69 180.8C1149.09 183.2 1152.35 184.4 1156.49 184.4H1190.49V204H1155.49Z" fill="#2E3532" data-name="> jorgectl"/>
	<path d="M16.5906 192H15.5906V193.598L17.028 192.899L16.5906 192ZM16.5906 171.6L16.1592 170.698L15.5906 170.97V171.6H16.5906ZM76.3906 143L75.9803 142.088L75.9697 142.093L75.9592 142.098L76.3906 143ZM83.9906 140L83.6744 139.051L83.6744 139.051L83.9906 140ZM89.3906 138.4L89.6076 139.376L89.5867 137.419L89.3906 138.4ZM83.5906 136.8L83.2282 137.732L83.2585 137.744L83.2895 137.754L83.5906 136.8ZM76.3906 133.6L76.8378 132.706L76.83 132.702L76.8221 132.698L76.3906 133.6ZM16.5906 105H15.5906V105.63L16.1592 105.902L16.5906 105ZM16.5906 84.2L17.028 83.3007L15.5906 82.6017V84.2H16.5906ZM104.191 126.8H105.191V126.174L104.628 125.901L104.191 126.8ZM104.191 149.4L104.628 150.299L105.191 150.026V149.4H104.191ZM17.5906 192V171.6H15.5906V192H17.5906ZM17.0221 172.502L76.8221 143.902L75.9592 142.098L16.1592 170.698L17.0221 172.502ZM76.801 143.912C79.4415 142.724 81.9433 141.737 84.3069 140.949L83.6744 139.051C81.238 139.863 78.6731 140.876 75.9803 142.088L76.801 143.912ZM84.3069 140.949C86.7008 140.151 88.4603 139.631 89.6076 139.376L89.1737 137.424C87.9209 137.702 86.0805 138.249 83.6744 139.051L84.3069 140.949ZM89.5867 137.419C88.3081 137.164 86.4165 136.644 83.8918 135.846L83.2895 137.754C85.8314 138.556 87.8065 139.103 89.1945 139.381L89.5867 137.419ZM83.9531 135.868C81.5831 134.946 79.2113 133.892 76.8378 132.706L75.9434 134.494C78.3699 135.708 80.7982 136.787 83.2282 137.732L83.9531 135.868ZM76.8221 132.698L17.0221 104.098L16.1592 105.902L75.9592 134.502L76.8221 132.698ZM17.5906 105V84.2H15.5906V105H17.5906ZM16.1533 85.0993L103.753 127.699L104.628 125.901L17.028 83.3007L16.1533 85.0993ZM103.191 126.8V149.4H105.191V126.8H103.191ZM103.753 148.501L16.1533 191.101L17.028 192.899L104.628 150.299L103.753 148.501ZM257.034 240H256.034V241H257.034V240ZM257.034 220V219H256.034V220H257.034ZM301.834 214L302.53 214.719L302.53 214.719L301.834 214ZM308.034 113.8H309.034V112.8H308.034V113.8ZM263.034 113.8H262.034V114.8H263.034V113.8ZM263.034 94V93H262.034V94H263.034ZM329.634 94H330.634V93H329.634V94ZM317.634 228.4L316.946 227.675L316.939 227.681L317.634 228.4ZM306.634 71.4L305.963 72.1415L305.973 72.1505L305.984 72.1592L306.634 71.4ZM306.634 51.4L307.285 52.1593L307.295 52.1505L307.305 52.1415L306.634 51.4ZM329.034 51.4L328.363 52.1415L328.373 52.1505L328.384 52.1593L329.034 51.4ZM329.034 71.4L329.685 72.1592L329.695 72.1505L329.705 72.1415L329.034 71.4ZM258.034 240V220H256.034V240H258.034ZM257.034 221H284.634V219H257.034V221ZM284.634 221C292.153 221 298.163 218.945 302.53 214.719L301.139 213.281C297.24 217.055 291.783 219 284.634 219V221ZM302.53 214.719C306.908 210.482 309.034 204.526 309.034 197H307.034C307.034 204.141 305.028 209.518 301.139 213.281L302.53 214.719ZM309.034 197V113.8H307.034V197H309.034ZM308.034 112.8H263.034V114.8H308.034V112.8ZM264.034 113.8V94H262.034V113.8H264.034ZM263.034 95H329.634V93H263.034V95ZM328.634 94V197.2H330.634V94H328.634ZM328.634 197.2C328.634 210.184 324.708 220.3 316.946 227.675L318.323 229.125C326.56 221.3 330.634 210.616 330.634 197.2H328.634ZM316.939 227.681C309.166 235.196 298.636 239 285.234 239V241C299.033 241 310.103 237.071 318.329 229.119L316.939 227.681ZM285.234 239H257.034V241H285.234V239ZM317.834 74C313.341 74 309.86 72.8477 307.285 70.6407L305.984 72.1592C309.009 74.7523 312.994 76 317.834 76V74ZM307.305 70.6585C304.736 68.3339 303.434 65.2807 303.434 61.4H301.434C301.434 65.786 302.933 69.3994 305.963 72.1415L307.305 70.6585ZM303.434 61.4C303.434 57.3744 304.743 54.3385 307.285 52.1593L305.984 50.6407C302.926 53.2615 301.434 56.8923 301.434 61.4H303.434ZM307.305 52.1415C309.881 49.8114 313.355 48.6 317.834 48.6V46.6C312.981 46.6 308.988 47.9219 305.963 50.6585L307.305 52.1415ZM317.834 48.6C322.314 48.6 325.788 49.8114 328.363 52.1415L329.705 50.6585C326.681 47.9219 322.688 46.6 317.834 46.6V48.6ZM328.384 52.1593C330.926 54.3385 332.234 57.3744 332.234 61.4H334.234C334.234 56.8923 332.743 53.2615 329.685 50.6407L328.384 52.1593ZM332.234 61.4C332.234 65.2807 330.933 68.3339 328.363 70.6585L329.705 72.1415C332.736 69.3994 334.234 65.786 334.234 61.4H332.234ZM328.384 70.6407C325.809 72.8477 322.327 74 317.834 74V76C322.675 76 326.66 74.7523 329.685 72.1592L328.384 70.6407ZM396.556 200.6L397.018 199.713L397.018 199.713L396.556 200.6ZM381.156 185.8L382.028 185.31L382.028 185.31L381.156 185.8ZM381.156 112.2L382.023 112.698L382.028 112.69L381.156 112.2ZM396.556 97.4L396.095 96.5128L396.095 96.5128L396.556 97.4ZM443.756 97.4L444.218 96.5128L444.218 96.5128L443.756 97.4ZM459.156 112.2L458.285 112.69L458.289 112.698L459.156 112.2ZM459.156 185.8L460.028 186.29L460.028 186.29L459.156 185.8ZM443.756 200.6L443.295 199.713L443.295 199.713L443.756 200.6ZM437.156 180.8L437.863 181.507L437.869 181.501L437.875 181.495L437.156 180.8ZM403.156 117.2L402.461 116.481L402.455 116.487L402.449 116.493L403.156 117.2ZM403.156 180.8L402.438 181.495L402.449 181.507L402.461 181.519L403.156 180.8ZM420.156 204.8C411.217 204.8 403.515 203.092 397.018 199.713L396.095 201.487C402.931 205.042 410.962 206.8 420.156 206.8V204.8ZM397.018 199.713C390.519 196.334 385.53 191.536 382.028 185.31L380.285 186.29C383.982 192.864 389.26 197.933 396.095 201.487L397.018 199.713ZM382.028 185.31C378.526 179.084 376.756 171.726 376.756 163.2H374.756C374.756 172.007 376.586 179.716 380.285 186.29L382.028 185.31ZM376.756 163.2V134.8H374.756V163.2H376.756ZM376.756 134.8C376.756 126.137 378.528 118.783 382.023 112.698L380.289 111.702C376.585 118.15 374.756 125.863 374.756 134.8H376.756ZM382.028 112.69C385.53 106.464 390.519 101.666 397.018 98.2872L396.095 96.5128C389.26 100.067 383.982 105.136 380.285 111.71L382.028 112.69ZM397.018 98.2872C403.515 94.9085 411.217 93.2 420.156 93.2V91.2C410.962 91.2 402.931 92.9582 396.095 96.5128L397.018 98.2872ZM420.156 93.2C429.095 93.2 436.797 94.9085 443.295 98.2872L444.218 96.5128C437.382 92.9582 429.351 91.2 420.156 91.2V93.2ZM443.295 98.2872C449.793 101.666 454.782 106.464 458.285 112.69L460.028 111.71C456.33 105.136 451.052 100.067 444.218 96.5128L443.295 98.2872ZM458.289 112.698C461.785 118.783 463.556 126.137 463.556 134.8H465.556C465.556 125.863 463.728 118.15 460.023 111.702L458.289 112.698ZM463.556 134.8V163.2H465.556V134.8H463.556ZM463.556 163.2C463.556 171.726 461.786 179.084 458.285 185.31L460.028 186.29C463.726 179.716 465.556 172.007 465.556 163.2H463.556ZM458.285 185.31C454.782 191.536 449.793 196.334 443.295 199.713L444.218 201.487C451.052 197.933 456.33 192.864 460.028 186.29L458.285 185.31ZM443.295 199.713C436.797 203.092 429.095 204.8 420.156 204.8V206.8C429.351 206.8 437.382 205.042 444.218 201.487L443.295 199.713ZM420.156 187.8C427.673 187.8 433.625 185.746 437.863 181.507L436.449 180.093C432.688 183.854 427.306 185.8 420.156 185.8V187.8ZM437.875 181.495C442.107 177.122 444.156 170.974 444.156 163.2H442.156C442.156 170.626 440.205 176.212 436.438 180.105L437.875 181.495ZM444.156 163.2V134.8H442.156V163.2H444.156ZM444.156 134.8C444.156 126.901 442.111 120.741 437.863 116.493L436.449 117.907C440.201 121.659 442.156 127.232 442.156 134.8H444.156ZM437.863 116.493C433.625 112.254 427.673 110.2 420.156 110.2V112.2C427.306 112.2 432.688 114.146 436.449 117.907L437.863 116.493ZM420.156 110.2C412.765 110.2 406.825 112.258 402.461 116.481L403.852 117.919C407.754 114.142 413.147 112.2 420.156 112.2V110.2ZM402.449 116.493C398.201 120.741 396.156 126.901 396.156 134.8H398.156C398.156 127.232 400.111 121.659 403.863 117.907L402.449 116.493ZM396.156 134.8V163.2H398.156V134.8H396.156ZM396.156 163.2C396.156 170.974 398.205 177.122 402.438 181.495L403.875 180.105C400.107 176.212 398.156 170.626 398.156 163.2H396.156ZM402.461 181.519C406.825 185.742 412.765 187.8 420.156 187.8V185.8C413.147 185.8 407.754 183.858 403.852 180.081L402.461 181.519ZM500.478 204H499.478V205H500.478V204ZM500.478 94V93H499.478V94H500.478ZM521.278 94H522.278V93H521.278V94ZM521.278 115H520.278V116H521.278V115ZM526.478 115L527.37 115.453L528.107 114H526.478V115ZM519.878 128H518.878L520.77 128.453L519.878 128ZM527.678 101.2L528.434 101.855L528.441 101.847L527.678 101.2ZM578.678 103L577.945 103.68L577.951 103.687L577.958 103.694L578.678 103ZM589.078 140.2V141.2H590.078V140.2H589.078ZM566.878 140.2H565.878V141.2H566.878V140.2ZM560.878 116.6L560.137 117.272L560.148 117.284L560.16 117.295L560.878 116.6ZM527.878 116.6L527.149 115.916L527.143 115.922L527.137 115.928L527.878 116.6ZM522.078 204V205H523.078V204H522.078ZM501.478 204V94H499.478V204H501.478ZM500.478 95H521.278V93H500.478V95ZM520.278 94V115H522.278V94H520.278ZM521.278 116H526.478V114H521.278V116ZM525.586 114.547L518.986 127.547L520.77 128.453L527.37 115.453L525.586 114.547ZM520.878 128C520.878 116.259 523.453 107.602 528.434 101.855L526.922 100.545C521.503 106.798 518.878 116.008 518.878 128H520.878ZM528.441 101.847C533.401 95.9966 540.818 93 550.878 93V91C540.405 91 532.356 94.1367 526.915 100.553L528.441 101.847ZM550.878 93C562.386 93 571.367 96.5863 577.945 103.68L579.411 102.32C572.389 94.747 562.837 91 550.878 91V93ZM577.958 103.694C584.667 110.661 588.078 120.32 588.078 132.8H590.078C590.078 119.947 586.556 109.739 579.398 102.306L577.958 103.694ZM588.078 132.8V140.2H590.078V132.8H588.078ZM589.078 139.2H566.878V141.2H589.078V139.2ZM567.878 140.2V134.6H565.878V140.2H567.878ZM567.878 134.6C567.878 126.571 565.835 120.284 561.597 115.905L560.16 117.295C563.921 121.182 565.878 126.896 565.878 134.6H567.878ZM561.619 115.928C557.521 111.406 551.758 109.2 544.478 109.2V111.2C551.332 111.2 556.502 113.26 560.137 117.272L561.619 115.928ZM544.478 109.2C537.197 109.2 531.376 111.406 527.149 115.916L528.608 117.284C532.38 113.26 537.626 111.2 544.478 111.2V109.2ZM527.137 115.928C523.054 120.434 521.078 126.705 521.078 134.6H523.078C523.078 127.028 524.969 121.299 528.619 117.272L527.137 115.928ZM521.078 134.6V204H523.078V134.6H521.078ZM522.078 203H500.478V205H522.078V203ZM631.2 240H630.2V241H631.2V240ZM631.2 221.4V220.4H630.2V221.4H631.2ZM677.4 217.4L676.71 216.676L676.702 216.684L676.693 216.693L677.4 217.4ZM681.6 194.6L680.6 194.58L680.6 194.59V194.6H681.6ZM682 174.2L683 174.22L683.02 173.2H682V174.2ZM677.4 174.2L676.727 173.46L674.813 175.2H677.4V174.2ZM681.8 170.2H682.8V167.939L681.127 169.46L681.8 170.2ZM673.8 190L673.131 189.257L673.122 189.265L673.8 190ZM625.8 186L626.553 185.341L625.8 186ZM625.8 103.2L626.553 103.859L626.553 103.859L625.8 103.2ZM673.8 99.4L673.112 100.125L673.121 100.135L673.131 100.143L673.8 99.4ZM681.8 119.2L681.11 119.923L682.8 121.537V119.2H681.8ZM677.4 115V114H674.904L676.71 115.723L677.4 115ZM681.8 115V116H682.81L682.8 114.99L681.8 115ZM681.6 94V93H680.59L680.6 94.0095L681.6 94ZM703 94H704V93H703V94ZM693 230.8L692.331 230.057L692.323 230.064L693 230.8ZM675.6 172.4L674.87 171.716L674.87 171.717L675.6 172.4ZM675.6 117.2L674.859 117.872L674.87 117.884L674.881 117.895L675.6 117.2ZM643.2 117L642.47 116.317L642.469 116.318L643.2 117ZM643.2 172.4L642.458 173.07L642.464 173.077L642.47 173.083L643.2 172.4ZM632.2 240V221.4H630.2V240H632.2ZM631.2 222.4H665V220.4H631.2V222.4ZM665 222.4C670.738 222.4 675.179 221.036 678.107 218.107L676.693 216.693C674.288 219.098 670.462 220.4 665 220.4V222.4ZM678.09 218.124C681.149 215.21 682.6 210.976 682.6 205.6H680.6C680.6 210.624 679.251 214.256 676.71 216.676L678.09 218.124ZM682.6 205.6V194.6H680.6V205.6H682.6ZM682.6 194.62L683 174.22L681 174.18L680.6 194.58L682.6 194.62ZM682 173.2H677.4V175.2H682V173.2ZM678.073 174.94L682.473 170.94L681.127 169.46L676.727 173.46L678.073 174.94ZM680.8 170.2C680.8 178.37 678.217 184.679 673.131 189.257L674.469 190.743C680.049 185.721 682.8 178.83 682.8 170.2H680.8ZM673.122 189.265C668.151 193.853 661.351 196.2 652.6 196.2V198.2C661.716 198.2 669.049 195.747 674.478 190.735L673.122 189.265ZM652.6 196.2C641.509 196.2 632.868 192.559 626.553 185.341L625.047 186.659C631.799 194.374 641.024 198.2 652.6 198.2V196.2ZM626.553 185.341C620.219 178.103 617 168.293 617 155.8H615C615 168.64 618.314 178.964 625.047 186.659L626.553 185.341ZM617 155.8V133.4H615V155.8H617ZM617 133.4C617 120.907 620.219 111.097 626.553 103.859L625.047 102.541C618.314 110.236 615 120.56 615 133.4H617ZM626.553 103.859C632.868 96.6409 641.509 93 652.6 93V91C641.024 91 631.799 94.8257 625.047 102.541L626.553 103.859ZM652.6 93C661.343 93 668.141 95.4092 673.112 100.125L674.488 98.6745C669.059 93.5241 661.723 91 652.6 91V93ZM673.131 100.143C678.217 104.721 680.8 111.03 680.8 119.2H682.8C682.8 110.57 680.049 103.679 674.469 98.6567L673.131 100.143ZM682.49 118.477L678.09 114.277L676.71 115.723L681.11 119.923L682.49 118.477ZM677.4 116H681.8V114H677.4V116ZM682.8 114.99L682.6 93.9905L680.6 94.0095L680.8 115.01L682.8 114.99ZM681.6 95H703V93H681.6V95ZM702 94V206H704V94H702ZM702 206C702 216.304 698.75 224.28 692.331 230.057L693.669 231.543C700.584 225.32 704 216.763 704 206H702ZM692.323 230.064C685.892 235.98 676.896 239 665.2 239V241C677.238 241 686.774 237.886 693.677 231.536L692.323 230.064ZM665.2 239H631.2V241H665.2V239ZM659.6 179.6C666.616 179.6 672.237 177.459 676.33 173.083L674.87 171.717C671.23 175.608 666.184 177.6 659.6 177.6V179.6ZM676.33 173.084C680.548 168.585 682.6 162.448 682.6 154.8H680.6C680.6 162.086 678.652 167.682 674.87 171.716L676.33 173.084ZM682.6 154.8V134.6H680.6V154.8H682.6ZM682.6 134.6C682.6 126.954 680.548 120.875 676.319 116.505L674.881 117.895C678.652 121.792 680.6 127.313 680.6 134.6H682.6ZM676.341 116.528C672.25 112.015 666.626 109.8 659.6 109.8V111.8C666.174 111.8 671.216 113.852 674.859 117.872L676.341 116.528ZM659.6 109.8C652.33 109.8 646.57 111.933 642.47 116.317L643.93 117.683C647.563 113.8 652.737 111.8 659.6 111.8V109.8ZM642.469 116.318C638.503 120.567 636.6 126.718 636.6 134.6H638.6C638.6 127.015 640.431 121.433 643.931 117.682L642.469 116.318ZM636.6 134.6V154.8H638.6V134.6H636.6ZM636.6 154.8C636.6 162.557 638.506 168.695 642.458 173.07L643.942 171.73C640.427 167.838 638.6 162.243 638.6 154.8H636.6ZM642.47 173.083C646.57 177.467 652.33 179.6 659.6 179.6V177.6C652.737 177.6 647.563 175.6 643.93 171.717L642.47 173.083ZM756.322 200.8L755.847 201.68L755.857 201.686L755.868 201.691L756.322 200.8ZM740.922 185.8L741.793 185.31L741.793 185.31L740.922 185.8ZM740.922 112.2L741.789 112.698L741.793 112.69L740.922 112.2ZM756.322 97.4L756.783 98.2872L756.79 98.2838L756.322 97.4ZM803.522 97.4L803.047 98.2799L803.054 98.2836L803.061 98.2872L803.522 97.4ZM818.922 112.2L818.05 112.69L818.055 112.698L818.922 112.2ZM824.322 154.2V155.2H825.322V154.2H824.322ZM756.322 154.2V153.2H755.322V154.2H756.322ZM762.322 182L761.592 182.684L761.598 182.69L761.604 182.696L762.322 182ZM795.322 185.2L795.805 186.076L795.816 186.069L795.828 186.063L795.322 185.2ZM802.522 175.4V174.4H801.717L801.545 175.186L802.522 175.4ZM823.922 175.4L824.908 175.569L825.108 174.4H823.922V175.4ZM809.522 197.8L810.086 198.626L810.095 198.619L809.522 197.8ZM803.522 141.2H802.522V143.83L804.269 141.864L803.522 141.2ZM797.522 115.8L796.782 116.473L796.782 116.473L797.522 115.8ZM762.322 115.8L761.593 115.115L761.587 115.121L761.582 115.127L762.322 115.8ZM756.322 139.6H755.322V140.604L756.326 140.6L756.322 139.6ZM805.122 139.4L805.869 140.064L807.357 138.391L805.118 138.4L805.122 139.4ZM779.922 205C771.12 205 763.413 203.293 756.776 199.909L755.868 201.691C762.83 205.241 770.858 207 779.922 207V205ZM756.797 199.92C750.291 196.407 745.298 191.54 741.793 185.31L740.05 186.29C743.746 192.86 749.019 197.993 755.847 201.68L756.797 199.92ZM741.793 185.31C738.29 179.082 736.522 171.79 736.522 163.4H734.522C734.522 172.077 736.353 179.718 740.05 186.29L741.793 185.31ZM736.522 163.4V134.6H734.522V163.4H736.522ZM736.522 134.6C736.522 126.073 738.292 118.786 741.789 112.698L740.055 111.702C736.352 118.148 734.522 125.793 734.522 134.6H736.522ZM741.793 112.69C745.296 106.464 750.285 101.666 756.783 98.2872L755.861 96.5128C749.026 100.067 743.748 105.136 740.05 111.71L741.793 112.69ZM756.79 98.2838C763.424 94.7716 771.125 93 779.922 93V91C770.852 91 762.82 92.8284 755.854 96.5162L756.79 98.2838ZM779.922 93C788.855 93 796.552 94.7728 803.047 98.2799L803.997 96.5201C797.158 92.8271 789.122 91 779.922 91V93ZM803.061 98.2872C809.559 101.666 814.548 106.464 818.05 112.69L819.793 111.71C816.096 105.136 810.818 100.067 803.983 96.5128L803.061 98.2872ZM818.055 112.698C821.552 118.786 823.322 126.073 823.322 134.6H825.322C825.322 125.793 823.492 118.148 819.789 111.702L818.055 112.698ZM823.322 134.6V154.2H825.322V134.6H823.322ZM824.322 153.2H756.322V155.2H824.322V153.2ZM755.322 154.2V163.4H757.322V154.2H755.322ZM755.322 163.4C755.322 171.687 757.361 178.17 761.592 182.684L763.051 181.316C759.283 177.297 757.322 171.379 757.322 163.4H755.322ZM761.604 182.696C765.978 187.211 772.203 189.4 780.122 189.4V187.4C772.574 187.4 766.933 185.323 763.04 181.304L761.604 182.696ZM780.122 189.4C786.491 189.4 791.741 188.318 795.805 186.076L794.839 184.324C791.169 186.349 786.286 187.4 780.122 187.4V189.4ZM795.828 186.063C799.928 183.659 802.504 180.161 803.499 175.614L801.545 175.186C800.673 179.172 798.449 182.208 794.816 184.337L795.828 186.063ZM802.522 176.4H823.922V174.4H802.522V176.4ZM822.936 175.231C821.383 184.292 816.737 191.528 808.948 196.981L810.095 198.619C818.306 192.872 823.261 185.174 824.908 175.569L822.936 175.231ZM808.958 196.974C801.156 202.305 791.497 205 779.922 205V207C791.813 207 801.888 204.228 810.086 198.626L808.958 196.974ZM804.522 141.2V134.4H802.522V141.2H804.522ZM804.522 134.4C804.522 126.238 802.48 119.767 798.262 115.127L796.782 116.473C800.564 120.633 802.522 126.562 802.522 134.4H804.522ZM798.262 115.127C794.019 110.461 787.847 108.2 779.922 108.2V110.2C787.463 110.2 793.024 112.339 796.782 116.473L798.262 115.127ZM779.922 108.2C772.122 108.2 765.962 110.465 761.593 115.115L763.051 116.485C766.949 112.335 772.522 110.2 779.922 110.2V108.2ZM761.582 115.127C757.361 119.77 755.322 126.31 755.322 134.6H757.322C757.322 126.623 759.282 120.63 763.062 116.473L761.582 115.127ZM755.322 134.6V139.6H757.322V134.6H755.322ZM756.326 140.6L805.126 140.4L805.118 138.4L756.318 138.6L756.326 140.6ZM804.374 138.736L802.774 140.536L804.269 141.864L805.869 140.064L804.374 138.736ZM876.644 201L876.19 201.891L876.2 201.896L876.21 201.901L876.644 201ZM860.844 186.2L859.968 186.683L859.974 186.693L859.98 186.704L860.844 186.2ZM860.844 111.8L859.98 111.296L859.976 111.303L859.972 111.31L860.844 111.8ZM876.644 97.2L877.084 98.0979L877.091 98.0944L876.644 97.2ZM932.444 102.4L933.099 101.644L933.099 101.644L932.444 102.4ZM945.044 130.8V131.8H946.078L946.043 130.767L945.044 130.8ZM923.444 130.8L922.446 130.864L922.506 131.8H923.444V130.8ZM916.844 116.2L916.189 116.956L916.189 116.956L916.844 116.2ZM883.244 117.2L883.928 117.93L883.934 117.924L883.94 117.918L883.244 117.2ZM883.244 180.8L883.94 180.082L883.94 180.082L883.244 180.8ZM916.844 181.8L916.189 181.044L916.189 181.044L916.844 181.8ZM923.444 167.2V166.2H922.506L922.446 167.136L923.444 167.2ZM945.044 167.2L946.043 167.233L946.078 166.2H945.044V167.2ZM932.444 195.6L933.099 196.356L933.099 196.356L932.444 195.6ZM900.644 205C891.701 205 883.853 203.356 877.077 200.099L876.21 201.901C883.301 205.31 891.454 207 900.644 207V205ZM877.098 200.109C870.463 196.727 865.341 191.925 861.708 185.696L859.98 186.704C863.813 193.275 869.224 198.34 876.19 201.891L877.098 200.109ZM861.72 185.717C858.213 179.354 856.444 171.925 856.444 163.4H854.444C854.444 172.208 856.274 179.979 859.968 186.683L861.72 185.717ZM856.444 163.4V134.6H854.444V163.4H856.444ZM856.444 134.6C856.444 125.938 858.215 118.513 861.715 112.29L859.972 111.31C856.273 117.887 854.444 125.662 854.444 134.6H856.444ZM861.708 112.304C865.339 106.078 870.457 101.347 877.084 98.0979L876.204 96.3021C869.231 99.7201 863.815 104.722 859.98 111.296L861.708 112.304ZM877.091 98.0944C883.864 94.708 891.706 93 900.644 93V91C891.448 91 883.29 92.7586 876.197 96.3056L877.091 98.0944ZM900.644 93C913.665 93 924.012 96.416 931.789 103.156L933.099 101.644C924.875 94.5173 914.023 91 900.644 91V93ZM931.789 103.156C939.549 109.881 943.652 119.07 944.044 130.833L946.043 130.767C945.635 118.53 941.338 108.785 933.099 101.644L931.789 103.156ZM945.044 129.8H923.444V131.8H945.044V129.8ZM924.442 130.736C924.028 124.256 921.738 119.119 917.499 115.444L916.189 116.956C919.949 120.215 922.059 124.811 922.446 130.864L924.442 130.736ZM917.499 115.444C913.27 111.779 907.614 110 900.644 110V112C907.273 112 912.417 113.687 916.189 116.956L917.499 115.444ZM900.644 110C893.115 110 887.043 112.127 882.548 116.482L883.94 117.918C887.978 114.006 893.506 112 900.644 112V110ZM882.56 116.47C878.039 120.709 875.844 126.738 875.844 134.4H877.844C877.844 127.129 879.915 121.691 883.928 117.93L882.56 116.47ZM875.844 134.4V163.4H877.844V134.4H875.844ZM875.844 163.4C875.844 171.064 878.04 177.151 882.548 181.518L883.94 180.082C879.915 176.183 877.844 170.67 877.844 163.4H875.844ZM882.548 181.518C887.043 185.873 893.115 188 900.644 188V186C893.506 186 887.978 183.994 883.94 180.082L882.548 181.518ZM900.644 188C907.614 188 913.27 186.221 917.499 182.556L916.189 181.044C912.417 184.313 907.273 186 900.644 186V188ZM917.499 182.556C921.738 178.881 924.028 173.744 924.442 167.264L922.446 167.136C922.059 173.189 919.949 177.785 916.189 181.044L917.499 182.556ZM923.444 168.2H945.044V166.2H923.444V168.2ZM944.044 167.167C943.652 178.93 939.549 188.119 931.789 194.844L933.099 196.356C941.338 189.215 945.635 179.47 946.043 167.233L944.044 167.167ZM931.789 194.844C924.012 201.584 913.665 205 900.644 205V207C914.023 207 924.875 203.483 933.099 196.356L931.789 194.844ZM1008.37 195.8L1007.67 196.516L1008.37 195.8ZM999.966 113.6H1000.97V112.6H999.966V113.6ZM969.566 113.6H968.566V114.6H969.566V113.6ZM969.566 94V93H968.566V94H969.566ZM999.966 94V95H1000.97V94H999.966ZM999.966 63V62H998.966V63H999.966ZM1021.57 63H1022.57V62H1021.57V63ZM1021.57 94H1020.57V95H1021.57V94ZM1064.57 94H1065.57V93H1064.57V94ZM1064.57 113.6V114.6H1065.57V113.6H1064.57ZM1021.57 113.6V112.6H1020.57V113.6H1021.57ZM1062.57 184.4H1063.57V183.4H1062.57V184.4ZM1062.57 204V205H1063.57V204H1062.57ZM1031.77 203C1021.95 203 1014.43 200.322 1009.06 195.084L1007.67 196.516C1013.5 202.211 1021.58 205 1031.77 205V203ZM1009.06 195.084C1003.7 189.85 1000.97 182.534 1000.97 173H998.966C998.966 182.933 1001.83 190.817 1007.67 196.516L1009.06 195.084ZM1000.97 173V113.6H998.966V173H1000.97ZM999.966 112.6H969.566V114.6H999.966V112.6ZM970.566 113.6V94H968.566V113.6H970.566ZM969.566 95H999.966V93H969.566V95ZM1000.97 94V63H998.966V94H1000.97ZM999.966 64H1021.57V62H999.966V64ZM1020.57 63V94H1022.57V63H1020.57ZM1021.57 95H1064.57V93H1021.57V95ZM1063.57 94V113.6H1065.57V94H1063.57ZM1064.57 112.6H1021.57V114.6H1064.57V112.6ZM1020.57 113.6V173H1022.57V113.6H1020.57ZM1020.57 173C1020.57 176.945 1021.52 180.09 1023.6 182.244C1025.68 184.406 1028.74 185.4 1032.57 185.4V183.4C1029.06 183.4 1026.62 182.494 1025.04 180.856C1023.45 179.21 1022.57 176.655 1022.57 173H1020.57ZM1032.57 185.4H1062.57V183.4H1032.57V185.4ZM1061.57 184.4V204H1063.57V184.4H1061.57ZM1062.57 203H1031.77V205H1062.57V203ZM1137.69 200L1137.2 200.875L1137.21 200.88L1137.22 200.885L1137.69 200ZM1125.69 188.2L1124.81 188.684L1124.82 188.692L1124.82 188.701L1125.69 188.2ZM1121.49 77.6H1122.49V76.6H1121.49V77.6ZM1085.49 77.6H1084.49V78.6H1085.49V77.6ZM1085.49 58V57H1084.49V58H1085.49ZM1143.09 58H1144.09V57H1143.09V58ZM1146.69 180.8L1145.96 181.488L1145.97 181.498L1145.98 181.507L1146.69 180.8ZM1190.49 184.4H1191.49V183.4H1190.49V184.4ZM1190.49 204V205H1191.49V204H1190.49ZM1155.49 203C1148.82 203 1143.05 201.693 1138.15 199.115L1137.22 200.885C1142.46 203.64 1148.56 205 1155.49 205V203ZM1138.17 199.125C1133.27 196.414 1129.4 192.61 1126.55 187.699L1124.82 188.701C1127.85 193.923 1131.98 197.986 1137.2 200.875L1138.17 199.125ZM1126.56 187.716C1123.86 182.819 1122.49 177.123 1122.49 170.6H1120.49C1120.49 177.41 1121.92 183.448 1124.81 188.684L1126.56 187.716ZM1122.49 170.6V77.6H1120.49V170.6H1122.49ZM1121.49 76.6H1085.49V78.6H1121.49V76.6ZM1086.49 77.6V58H1084.49V77.6H1086.49ZM1085.49 59H1143.09V57H1085.49V59ZM1142.09 58V170.6H1144.09V58H1142.09ZM1142.09 170.6C1142.09 175.062 1143.35 178.729 1145.96 181.488L1147.41 180.112C1145.23 177.804 1144.09 174.671 1144.09 170.6H1142.09ZM1145.98 181.507C1148.61 184.134 1152.15 185.4 1156.49 185.4V183.4C1152.56 183.4 1149.57 182.266 1147.39 180.093L1145.98 181.507ZM1156.49 185.4H1190.49V183.4H1156.49V185.4ZM1189.49 184.4V204H1191.49V184.4H1189.49ZM1190.49 203H1155.49V205H1190.49V203Z" fill="#E0E2DB" data-name="> jorgectl"/>
	</g>
	<g opacity="0.191642" filter="url(#filter0_d_65_10)" data-name="_" class="__159" transform="translate(1417 1)">
	<path d="M12.0391 227.8V209H108.039V227.8H12.0391Z" fill="#2E3532" data-name="_" class="__159"/>
	<path d="M12.0391 227.8H11.0391V228.8H12.0391V227.8ZM12.0391 209V208H11.0391V209H12.0391ZM108.039 209H109.039V208H108.039V209ZM108.039 227.8V228.8H109.039V227.8H108.039ZM13.0391 227.8V209H11.0391V227.8H13.0391ZM12.0391 210H108.039V208H12.0391V210ZM107.039 209V227.8H109.039V209H107.039ZM108.039 226.8H12.0391V228.8H108.039V226.8Z" fill="#E0E2DB" data-name="_" class="__159"/>
	</g>
</g>
<defs>
<filter id="filter0_d_65_7" x="0" y="0" width="1644" height="274" filterUnits="userSpaceOnUse" color-interpolation-filters="sRGB">
<feFlood flood-opacity="0" result="BackgroundImageFix"/>
<feColorMatrix in="SourceAlpha" type="matrix" values="0 0 0 0 0 0 0 0 0 0 0 0 0 0 0 0 0 0 127 0" result="hardAlpha"/>
<feOffset dy="4"/>
<feGaussianBlur stdDeviation="2"/>
<feComposite in2="hardAlpha" operator="out"/>
<feColorMatrix type="matrix" values="0 0 0 0 0 0 0 0 0 0 0 0 0 0 0 0 0 0 0.25 0"/>
<feBlend mode="normal" in2="BackgroundImageFix" result="effect1_dropShadow_65_7"/>
<feBlend mode="normal" in="SourceGraphic" in2="effect1_dropShadow_65_7" result="shape"/>
</filter>

<filter id="filter0_d_65_8" x="12.5906" y="47.6" width="1181.9" height="200.4" filterUnits="userSpaceOnUse" color-interpolation-filters="sRGB">
<feFlood flood-opacity="0" result="BackgroundImageFix"/>
<feColorMatrix in="SourceAlpha" type="matrix" values="0 0 0 0 0 0 0 0 0 0 0 0 0 0 0 0 0 0 127 0" result="hardAlpha"/>
<feOffset dy="4"/>
<feGaussianBlur stdDeviation="2"/>
<feComposite in2="hardAlpha" operator="out"/>
<feColorMatrix type="matrix" values="0 0 0 0 0 0 0 0 0 0 0 0 0 0 0 0 0 0 0.25 0"/>
<feBlend mode="normal" in2="BackgroundImageFix" result="effect1_dropShadow_65_8"/>
<feBlend mode="normal" in="SourceGraphic" in2="effect1_dropShadow_65_8" result="shape"/>
</filter>

<filter id="filter0_d_65_10" x="8.03906" y="209" width="104" height="26.8" filterUnits="userSpaceOnUse" color-interpolation-filters="sRGB">
<feFlood flood-opacity="0" result="BackgroundImageFix"/>
<feColorMatrix in="SourceAlpha" type="matrix" values="0 0 0 0 0 0 0 0 0 0 0 0 0 0 0 0 0 0 127 0" result="hardAlpha"/>
<feOffset dy="4"/>
<feGaussianBlur stdDeviation="2"/>
<feComposite in2="hardAlpha" operator="out"/>
<feColorMatrix type="matrix" values="0 0 0 0 0 0 0 0 0 0 0 0 0 0 0 0 0 0 0.25 0"/>
<feBlend mode="normal" in2="BackgroundImageFix" result="effect1_dropShadow_65_10"/>
<feBlend mode="normal" in="SourceGraphic" in2="effect1_dropShadow_65_10" result="shape"/>
</filter>

</defs>
</svg>